# xmcd
#
# Track frame offsets:
#	150
#	16925
#	36135
#	62635
#	87840
#	110992
#	138177
#	159222
#	179280
#	198895
#	218807
#	242687
#
# Disc length: 3565 seconds
# Revision: 3
# Processed by: cddbd v1.5.2PL0 Copyright (c) Steve Scherf et al.
# Submitted via: dBpowerAMP V12.0
#
DISCID=990deb0c
DTITLE=Mary Chapin Carpenter - Between Here and Gone
DYEAR=2004
DGENRE=Country
TTITLE0=What Would You Say to Me
TTITLE1=Luna's Gone
TTITLE2=My Heaven
TTITLE3=Goodnight America
TTITLE4=Between Here and Gone
TTITLE5=One Small Heart
TTITLE6=Beautiful Racket
TTITLE7=Girls Like Me
TTITLE8=River
TTITLE9=Grand Central Station
TTITLE10=The Shelter of Storms
TTITLE11=Elysium
EXTD=
EXTT0=
EXTT1=
EXTT2=
EXTT3=
EXTT4=
EXTT5=
EXTT6=
EXTT7=
EXTT8=
EXTT9=
EXTT10=
EXTT11=
PLAYORDER=
